# xmcd CD database file
#
# Track frame offsets:
#	150
#	25103
#	50153
#
# Disc length: 1002 seconds
#
# Revision: 2
# Processed by: cddbd v1.5.1PL0 Copyright (c) Steve Scherf et al.
# Submitted via: CDex 1.60beta1
#
DISCID=2003e803
DTITLE=華原 朋美 - here we are
DYEAR=1900
DGENRE=J-POP
TTITLE0=here we are(Single Mix)
TTITLE1=here we are(Acoustic Mix with TK)
TTITLE2=here we are(Instrumental)
EXTD=
EXTT0=
EXTT1=
EXTT2=
PLAYORDER=
